<svg id="Layer_1" data-name="Layer 1" xmlns="http://www.w3.org/2000/svg" viewBox="0 0 200 200"><defs><style></style></defs><title>monitoring transport</title><path class="cls-1" d="M147,148.54a32.67,32.67,0,0,0,1.56-45.09l-2.77,2.71a28.78,28.78,0,0,1-41.14,40.15L101.85,149a32.7,32.7,0,0,0,45.13-.48ZM178.74,74,176,76.67A71,71,0,0,1,74.41,175.8l-2.77,2.71A74.84,74.84,0,0,0,178.74,74Zm-17,89.67a53.77,53.77,0,0,0,1.91-74.93l-2.77,2.71a49.87,49.87,0,0,1-71.35,69.64l-2.77,2.71a53.81,53.81,0,0,0,75-.12Z"/><rect class="cls-1" x="67.34" y="89.42" width="57.03" height="11.8" rx="4.25" ry="4.25" transform="translate(231.03 94.26) rotate(134.71)"/><path class="cls-1" d="M92.17,121,72.42,101.44a2.84,2.84,0,0,0-4,0L1.82,168.74a2.84,2.84,0,0,0,0,4l19.75,19.53a2.84,2.84,0,0,0,4,0L92.19,125A2.84,2.84,0,0,0,92.17,121ZM60.4,115.91l4.9-5a1.4,1.4,0,0,1,2,0l5,4.9a1.4,1.4,0,0,1,0,2l-4.9,5a1.4,1.4,0,0,1-2,0l-5-4.9A1.4,1.4,0,0,1,60.4,115.91ZM50,126.39l4.9-5a1.4,1.4,0,0,1,2,0l5,4.9a1.4,1.4,0,0,1,0,2l-4.9,5a1.4,1.4,0,0,1-2,0l-5-4.9A1.4,1.4,0,0,1,50,126.39ZM39.65,136.88l4.9-5a1.4,1.4,0,0,1,2,0l5,4.9a1.4,1.4,0,0,1,0,2l-4.9,5a1.4,1.4,0,0,1-2,0l-5-4.9A1.4,1.4,0,0,1,39.65,136.88ZM29.27,147.36l4.9-5a1.4,1.4,0,0,1,2,0l5,4.9a1.4,1.4,0,0,1,0,2l-4.9,5a1.4,1.4,0,0,1-2,0l-5-4.9A1.4,1.4,0,0,1,29.27,147.36ZM18.9,157.84l4.9-5a1.4,1.4,0,0,1,2,0l5,4.9a1.4,1.4,0,0,1,0,2l-4.9,5a1.4,1.4,0,0,1-2,0l-5-4.9A1.4,1.4,0,0,1,18.9,157.84Zm-5.41,17.35-5-4.9a1.4,1.4,0,0,1,0-2l4.9-5a1.4,1.4,0,0,1,2,0l5,4.9a1.4,1.4,0,0,1,0,2l-4.9,5A1.4,1.4,0,0,1,13.48,175.19Zm17.36,5.41-4.9,5a1.4,1.4,0,0,1-2,0l-5-4.9a1.4,1.4,0,0,1,0-2l4.9-5a1.4,1.4,0,0,1,2,0l5,4.9A1.4,1.4,0,0,1,30.84,180.6Zm10.38-10.48-4.9,5a1.4,1.4,0,0,1-2,0l-5-4.9a1.4,1.4,0,0,1,0-2l4.9-5a1.4,1.4,0,0,1,2,0l5,4.9A1.4,1.4,0,0,1,41.22,170.12Zm10.38-10.48-4.9,5a1.4,1.4,0,0,1-2,0l-5-4.9a1.4,1.4,0,0,1,0-2l4.9-5a1.4,1.4,0,0,1,2,0l5,4.9A1.4,1.4,0,0,1,51.59,159.64ZM62,149.15l-4.9,5a1.4,1.4,0,0,1-2,0l-5-4.9a1.4,1.4,0,0,1,0-2l4.9-5a1.4,1.4,0,0,1,2,0l5,4.9A1.4,1.4,0,0,1,62,149.15Zm10.38-10.48-4.9,5a1.4,1.4,0,0,1-2,0l-5-4.9a1.4,1.4,0,0,1,0-2l4.9-5a1.4,1.4,0,0,1,2,0l5,4.9A1.4,1.4,0,0,1,72.34,138.67Zm10.38-10.48-4.9,5a1.4,1.4,0,0,1-2,0l-5-4.9a1.4,1.4,0,0,1,0-2l4.9-5a1.4,1.4,0,0,1,2,0l5,4.9A1.4,1.4,0,0,1,82.72,128.19Z"/><path class="cls-1" d="M191.77,20.35,172,.82a2.84,2.84,0,0,0-4,0l-66.6,67.28a2.84,2.84,0,0,0,0,4l19.75,19.53a2.84,2.84,0,0,0,4,0l66.6-67.28A2.84,2.84,0,0,0,191.77,20.35Zm-29-7.85,4.9-5a1.4,1.4,0,0,1,2,0l5,4.9a1.4,1.4,0,0,1,0,2l-4.9,5a1.4,1.4,0,0,1-2,0l-5-4.9A1.4,1.4,0,0,1,162.76,12.5ZM152.39,23l4.9-5a1.4,1.4,0,0,1,2,0l5,4.9a1.4,1.4,0,0,1,0,2l-4.9,5a1.4,1.4,0,0,1-2,0l-5-4.9A1.4,1.4,0,0,1,152.39,23ZM142,33.46l4.9-5a1.4,1.4,0,0,1,2,0l5,4.9a1.4,1.4,0,0,1,0,2l-4.9,5a1.4,1.4,0,0,1-2,0l-5-4.9A1.4,1.4,0,0,1,142,33.46ZM131.64,43.94l4.9-5a1.4,1.4,0,0,1,2,0l5,4.9a1.4,1.4,0,0,1,0,2l-4.9,5a1.4,1.4,0,0,1-2,0l-5-4.9A1.4,1.4,0,0,1,131.64,43.94ZM121.26,54.42l4.9-5a1.4,1.4,0,0,1,2,0l5,4.9a1.4,1.4,0,0,1,0,2l-4.9,5a1.4,1.4,0,0,1-2,0l-5-4.9A1.4,1.4,0,0,1,121.26,54.42Zm-5.41,17.35-5-4.9a1.4,1.4,0,0,1,0-2l4.9-5a1.4,1.4,0,0,1,2,0l5,4.9a1.4,1.4,0,0,1,0,2l-4.9,5A1.4,1.4,0,0,1,115.85,71.77Zm17.36,5.41-4.9,5a1.4,1.4,0,0,1-2,0l-5-4.9a1.4,1.4,0,0,1,0-2l4.9-5a1.4,1.4,0,0,1,2,0l5,4.9A1.4,1.4,0,0,1,133.21,77.18ZM143.59,66.7l-4.9,5a1.4,1.4,0,0,1-2,0l-5-4.9a1.4,1.4,0,0,1,0-2l4.9-5a1.4,1.4,0,0,1,2,0l5,4.9A1.4,1.4,0,0,1,143.59,66.7ZM154,56.22l-4.9,5a1.4,1.4,0,0,1-2,0l-5-4.9a1.4,1.4,0,0,1,0-2l4.9-5a1.4,1.4,0,0,1,2,0l5,4.9A1.4,1.4,0,0,1,154,56.22Zm10.38-10.48-4.9,5a1.4,1.4,0,0,1-2,0l-5-4.9a1.4,1.4,0,0,1,0-2l4.9-5a1.4,1.4,0,0,1,2,0l5,4.9A1.4,1.4,0,0,1,164.34,45.74Zm10.38-10.48-4.9,5a1.4,1.4,0,0,1-2,0l-5-4.9a1.4,1.4,0,0,1,0-2l4.9-5a1.4,1.4,0,0,1,2,0l5,4.9A1.4,1.4,0,0,1,174.71,35.26Zm10.38-10.48-4.9,5a1.4,1.4,0,0,1-2,0l-5-4.9a1.4,1.4,0,0,1,0-2l4.9-5a1.4,1.4,0,0,1,2,0l5,4.9A1.4,1.4,0,0,1,185.09,24.77Z"/><path class="cls-1" d="M106.59,119.42l5.36-5.41,3.5,3.46-1.5,1.51c-1.08,1.09,3.14,9.79,4.23,10.87l.23.23a2.8,2.8,0,0,0,3.94,0L133,119.34a2.79,2.79,0,0,0,0-3.94l-.23-.23c-1.09-1.08-9.84-5.2-10.92-4.11l-1.5,1.51-3.5-3.46,5.36-5.41a4.19,4.19,0,0,0,0-5.91L90.31,66.33a4.19,4.19,0,0,0-5.91,0L68.84,82.08a4.19,4.19,0,0,0,0,5.91l31.8,31.46A4.19,4.19,0,0,0,106.59,119.42Z"/></svg>