<svg id="Layer_1" data-name="Layer 1" xmlns="http://www.w3.org/2000/svg" viewBox="0 0 200 200"><defs><style/></defs><title>monitoring transport</title><path class="cls-1" d="M147 148.54a32.67 32.67 0 0 0 1.56-45.09l-2.77 2.71a28.78 28.78 0 0 1-41.14 40.15l-2.8 2.69a32.7 32.7 0 0 0 45.13-.48zM178.74 74L176 76.67A71 71 0 0 1 74.41 175.8l-2.77 2.71A74.84 74.84 0 0 0 178.74 74zm-17 89.67a53.77 53.77 0 0 0 1.91-74.93l-2.77 2.71a49.87 49.87 0 0 1-71.35 69.64l-2.77 2.71a53.81 53.81 0 0 0 75-.12z"/><rect class="cls-1" x="67.34" y="89.42" width="57.03" height="11.8" rx="4.25" ry="4.25" transform="rotate(134.71 95.853 95.32)"/><path class="cls-1" d="M92.17 121l-19.75-19.56a2.84 2.84 0 0 0-4 0l-66.6 67.3a2.84 2.84 0 0 0 0 4l19.75 19.53a2.84 2.84 0 0 0 4 0L92.19 125a2.84 2.84 0 0 0-.02-4zm-31.77-5.09l4.9-5a1.4 1.4 0 0 1 2 0l5 4.9a1.4 1.4 0 0 1 0 2l-4.9 5a1.4 1.4 0 0 1-2 0l-5-4.9a1.4 1.4 0 0 1 0-2zM50 126.39l4.9-5a1.4 1.4 0 0 1 2 0l5 4.9a1.4 1.4 0 0 1 0 2l-4.9 5a1.4 1.4 0 0 1-2 0l-5-4.9a1.4 1.4 0 0 1 0-2zm-10.35 10.49l4.9-5a1.4 1.4 0 0 1 2 0l5 4.9a1.4 1.4 0 0 1 0 2l-4.9 5a1.4 1.4 0 0 1-2 0l-5-4.9a1.4 1.4 0 0 1 0-2zm-10.38 10.48l4.9-5a1.4 1.4 0 0 1 2 0l5 4.9a1.4 1.4 0 0 1 0 2l-4.9 5a1.4 1.4 0 0 1-2 0l-5-4.9a1.4 1.4 0 0 1 0-2zM18.9 157.84l4.9-5a1.4 1.4 0 0 1 2 0l5 4.9a1.4 1.4 0 0 1 0 2l-4.9 5a1.4 1.4 0 0 1-2 0l-5-4.9a1.4 1.4 0 0 1 0-2zm-5.41 17.35l-5-4.9a1.4 1.4 0 0 1 0-2l4.9-5a1.4 1.4 0 0 1 2 0l5 4.9a1.4 1.4 0 0 1 0 2l-4.9 5a1.4 1.4 0 0 1-2.01 0zm17.36 5.41l-4.9 5a1.4 1.4 0 0 1-2 0l-5-4.9a1.4 1.4 0 0 1 0-2l4.9-5a1.4 1.4 0 0 1 2 0l5 4.9a1.4 1.4 0 0 1-.01 2zm10.38-10.48l-4.9 5a1.4 1.4 0 0 1-2 0l-5-4.9a1.4 1.4 0 0 1 0-2l4.9-5a1.4 1.4 0 0 1 2 0l5 4.9a1.4 1.4 0 0 1-.01 2zm10.38-10.48l-4.9 5a1.4 1.4 0 0 1-2 0l-5-4.9a1.4 1.4 0 0 1 0-2l4.9-5a1.4 1.4 0 0 1 2 0l5 4.9a1.4 1.4 0 0 1-.02 2zM62 149.15l-4.9 5a1.4 1.4 0 0 1-2 0l-5-4.9a1.4 1.4 0 0 1 0-2l4.9-5a1.4 1.4 0 0 1 2 0l5 4.9a1.4 1.4 0 0 1 0 2zm10.38-10.48l-4.9 5a1.4 1.4 0 0 1-2 0l-5-4.9a1.4 1.4 0 0 1 0-2l4.9-5a1.4 1.4 0 0 1 2 0l5 4.9a1.4 1.4 0 0 1-.04 2zm10.38-10.48l-4.9 5a1.4 1.4 0 0 1-2 0l-5-4.9a1.4 1.4 0 0 1 0-2l4.9-5a1.4 1.4 0 0 1 2 0l5 4.9a1.4 1.4 0 0 1-.04 2zM191.77 20.35L172 .82a2.84 2.84 0 0 0-4 0L101.4 68.1a2.84 2.84 0 0 0 0 4l19.75 19.53a2.84 2.84 0 0 0 4 0l66.6-67.28a2.84 2.84 0 0 0 .02-4zm-29-7.85l4.9-5a1.4 1.4 0 0 1 2 0l5 4.9a1.4 1.4 0 0 1 0 2l-4.9 5a1.4 1.4 0 0 1-2 0l-5-4.9a1.4 1.4 0 0 1-.01-2zM152.39 23l4.9-5a1.4 1.4 0 0 1 2 0l5 4.9a1.4 1.4 0 0 1 0 2l-4.9 5a1.4 1.4 0 0 1-2 0l-5-4.9a1.4 1.4 0 0 1 0-2zM142 33.46l4.9-5a1.4 1.4 0 0 1 2 0l5 4.9a1.4 1.4 0 0 1 0 2l-4.9 5a1.4 1.4 0 0 1-2 0l-5-4.9a1.4 1.4 0 0 1 0-2zm-10.36 10.48l4.9-5a1.4 1.4 0 0 1 2 0l5 4.9a1.4 1.4 0 0 1 0 2l-4.9 5a1.4 1.4 0 0 1-2 0l-5-4.9a1.4 1.4 0 0 1 0-2zm-10.38 10.48l4.9-5a1.4 1.4 0 0 1 2 0l5 4.9a1.4 1.4 0 0 1 0 2l-4.9 5a1.4 1.4 0 0 1-2 0l-5-4.9a1.4 1.4 0 0 1 0-2zm-5.41 17.35l-5-4.9a1.4 1.4 0 0 1 0-2l4.9-5a1.4 1.4 0 0 1 2 0l5 4.9a1.4 1.4 0 0 1 0 2l-4.9 5a1.4 1.4 0 0 1-2 0zm17.36 5.41l-4.9 5a1.4 1.4 0 0 1-2 0l-5-4.9a1.4 1.4 0 0 1 0-2l4.9-5a1.4 1.4 0 0 1 2 0l5 4.9a1.4 1.4 0 0 1 0 2zm10.38-10.48l-4.9 5a1.4 1.4 0 0 1-2 0l-5-4.9a1.4 1.4 0 0 1 0-2l4.9-5a1.4 1.4 0 0 1 2 0l5 4.9a1.4 1.4 0 0 1 0 2zM154 56.22l-4.9 5a1.4 1.4 0 0 1-2 0l-5-4.9a1.4 1.4 0 0 1 0-2l4.9-5a1.4 1.4 0 0 1 2 0l5 4.9a1.4 1.4 0 0 1 0 2zm10.38-10.48l-4.9 5a1.4 1.4 0 0 1-2 0l-5-4.9a1.4 1.4 0 0 1 0-2l4.9-5a1.4 1.4 0 0 1 2 0l5 4.9a1.4 1.4 0 0 1-.04 2zm10.38-10.48l-4.9 5a1.4 1.4 0 0 1-2 0l-5-4.9a1.4 1.4 0 0 1 0-2l4.9-5a1.4 1.4 0 0 1 2 0l5 4.9a1.4 1.4 0 0 1-.05 2zm10.38-10.48l-4.9 5a1.4 1.4 0 0 1-2 0l-5-4.9a1.4 1.4 0 0 1 0-2l4.9-5a1.4 1.4 0 0 1 2 0l5 4.9a1.4 1.4 0 0 1-.05 1.99zm-78.55 94.64l5.36-5.41 3.5 3.46-1.5 1.51c-1.08 1.09 3.14 9.79 4.23 10.87l.23.23a2.8 2.8 0 0 0 3.94 0L133 119.34a2.79 2.79 0 0 0 0-3.94l-.23-.23c-1.09-1.08-9.84-5.2-10.92-4.11l-1.5 1.51-3.5-3.46 5.36-5.41a4.19 4.19 0 0 0 0-5.91l-31.9-31.46a4.19 4.19 0 0 0-5.91 0L68.84 82.08a4.19 4.19 0 0 0 0 5.91l31.8 31.46a4.19 4.19 0 0 0 5.95-.03z"/></svg>